<svg xmlns="http://www.w3.org/2000/svg" width="120" height="120" viewBox="0 0 120 120" fill="none">
  <path d="M10 70C10 81.0455 18.9543 90 30 90C41.0457 90 50 81.0455 50 70C50 58.9545 41.0457 50 30 50C18.9543 50 10 58.9545 10 70ZM10 70V30" stroke="black" stroke-width="1.5" stroke-linecap="round" stroke-linejoin="round"/>
  <path d="M110 70C110 81.0455 101.046 90 90 90C78.9545 90 70 81.0455 70 70C70 58.9545 78.9545 50 90 50C101.046 50 110 58.9545 110 70ZM110 70V30" stroke="black" stroke-width="1.5" stroke-linecap="round" stroke-linejoin="round"/>
  <path d="M70 70H50" stroke="black" stroke-width="1.5" stroke-linecap="round" stroke-linejoin="round"/>
</svg>