<svg xmlns="http://www.w3.org/2000/svg" width="1440" height="178" viewBox="0 0 1440 178" fill="none">
  <path d="M1440 177.75H0V0H0.5625V0.0675C15.165 1.15875 30.2062 2.5875 45.2925 4.32C47.0025 4.32 48.375 4.30875 49.725 4.30875C54.5513 4.30875 59.4337 4.35375 64.2263 4.455L52.9537 5.22C70.65 7.3575 89.0775 10.0012 107.719 13.0612C125.336 15.9525 143.674 19.305 162.225 23.0287C196.11 29.8237 231.289 37.9462 269.764 47.8237C314.719 59.3775 360.079 72.135 403.942 84.465H403.965L404.179 84.5212H404.224V84.5325H404.246C471.037 103.32 540.101 122.749 608.783 138.24C645.694 146.565 679.511 153.112 712.181 158.254C729.922 161.044 747.472 163.429 764.347 165.352C782.066 167.366 799.751 168.953 816.885 170.055C840.544 171.574 864.675 172.316 890.651 172.316C966.386 172.316 1043.17 165.825 1117.41 159.548H1117.43L1118.06 159.491H1118.08L1118.5 159.458C1155.39 156.341 1193.55 153.124 1231.17 150.727C1273.33 148.05 1310.16 146.745 1343.77 146.745C1377.37 146.745 1408.85 148.028 1438.88 150.683V150.75H1440V177.75Z" fill="#128857"/>
</svg>