<svg width="1440" height="489" viewBox="0 0 1440 489" fill="none" xmlns="http://www.w3.org/2000/svg">
<circle cx="122.034" cy="366.064" r="121.534" stroke="white"/>
<circle cx="146.441" cy="363.632" r="121.534" stroke="white"/>
<circle cx="170.847" cy="356.431" r="121.534" stroke="white"/>
<circle cx="195.254" cy="344.749" r="121.534" stroke="white"/>
<circle cx="219.661" cy="329.052" r="121.534" stroke="white"/>
<circle cx="244.068" cy="309.966" r="121.534" stroke="white"/>
<circle cx="268.475" cy="288.25" r="121.534" stroke="white"/>
<circle cx="292.881" cy="264.772" r="121.534" stroke="white"/>
<circle cx="317.288" cy="240.467" r="121.534" stroke="white"/>
<circle cx="341.695" cy="216.304" r="121.534" stroke="white"/>
<circle cx="366.102" cy="193.246" r="121.534" stroke="white"/>
<circle cx="390.508" cy="172.213" r="121.534" stroke="white"/>
<circle cx="414.915" cy="154.043" r="121.534" stroke="white"/>
<circle cx="439.322" cy="139.461" r="121.534" stroke="white"/>
<circle cx="463.729" cy="129.047" r="121.534" stroke="white"/>
<circle cx="488.136" cy="123.218" r="121.534" stroke="white"/>
<circle cx="512.542" cy="122.205" r="121.534" stroke="white"/>
<circle cx="536.949" cy="126.048" r="121.534" stroke="white"/>
<circle cx="561.356" cy="134.595" r="121.534" stroke="white"/>
<circle cx="585.763" cy="147.505" r="121.534" stroke="white"/>
<circle cx="610.169" cy="164.264" r="121.534" stroke="white"/>
<circle cx="634.576" cy="184.202" r="121.534" stroke="white"/>
<circle cx="658.983" cy="206.525" r="121.534" stroke="white"/>
<circle cx="683.39" cy="230.344" r="121.534" stroke="white"/>
<circle cx="707.797" cy="254.708" r="121.534" stroke="white"/>
<circle cx="732.203" cy="278.647" r="121.534" stroke="white"/>
<circle cx="756.61" cy="301.205" r="121.534" stroke="white"/>
<circle cx="781.017" cy="321.484" r="121.534" stroke="white"/>
<circle cx="805.424" cy="338.676" r="121.534" stroke="white"/>
<circle cx="829.831" cy="352.094" r="121.534" stroke="white"/>
<circle cx="854.237" cy="361.204" r="121.534" stroke="white"/>
<circle cx="878.644" cy="365.642" r="121.534" stroke="white"/>
<circle cx="903.051" cy="365.233" r="121.534" stroke="white"/>
<circle cx="927.458" cy="359.991" r="121.534" stroke="white"/>
<circle cx="951.864" cy="350.126" r="121.534" stroke="white"/>
<circle cx="976.271" cy="336.032" r="121.534" stroke="white"/>
<circle cx="1000.68" cy="318.27" r="121.534" stroke="white"/>
<circle cx="1025.08" cy="297.548" r="121.534" stroke="white"/>
<circle cx="1049.49" cy="274.692" r="121.534" stroke="white"/>
<circle cx="1073.9" cy="250.615" r="121.534" stroke="white"/>
<circle cx="1098.31" cy="226.274" r="121.534" stroke="white"/>
<circle cx="1122.71" cy="202.642" r="121.534" stroke="white"/>
<circle cx="1147.12" cy="180.66" r="121.534" stroke="white"/>
<circle cx="1171.53" cy="161.204" r="121.534" stroke="white"/>
<circle cx="1195.93" cy="145.05" r="121.534" stroke="white"/>
<circle cx="1220.34" cy="132.842" r="121.534" stroke="white"/>
<circle cx="1244.75" cy="125.066" r="121.534" stroke="white"/>
<circle cx="1269.15" cy="122.034" r="121.534" stroke="white"/>
<circle cx="1293.56" cy="123.865" r="121.534" stroke="white"/>
<circle cx="1317.97" cy="130.487" r="121.534" stroke="white"/>
</svg>
